<?xml version="1.0" encoding="utf-8"?>
<!-- Generator: Adobe Illustrator 16.0.4, SVG Export Plug-In . SVG Version: 6.00 Build 0)  -->
<!DOCTYPE svg PUBLIC "-//W3C//DTD SVG 1.1//EN" "http://www.w3.org/Graphics/SVG/1.1/DTD/svg11.dtd">
<svg version="1.1" id="Layer_1" xmlns="http://www.w3.org/2000/svg" xmlns:xlink="http://www.w3.org/1999/xlink" x="0px" y="0px"
	 width="160.448px" height="159.75px" viewBox="0 0 160.448 159.75" enable-background="new 0 0 160.448 159.75"
	 xml:space="preserve">
<g>
	<path fill="none" d="M160.371,80.079c0-7.328-0.183-14.663,0.067-21.983c0.153-4.486-1.465-7.443-5.226-9.924
		c-23.069-15.221-46.069-30.548-68.985-46C82.065-0.634,78.603-0.778,74.38,2.07C51.328,17.616,28.184,33.025,4.988,48.356
		c-3.598,2.378-5.035,5.273-4.986,9.547c0.166,14.655,0.167,29.314,0,43.97c-0.049,4.287,1.446,7.153,5.031,9.523
		c23.195,15.332,46.331,30.756,69.399,46.277c3.981,2.678,7.384,2.822,11.426,0.104c23.206-15.615,46.487-31.119,69.813-46.555
		c3.435-2.273,4.863-5.08,4.755-9.159C160.231,94.74,160.371,87.408,160.371,80.079z"/>
	<path fill-rule="evenodd" clip-rule="evenodd" fill="#FFFFFF" d="M160.371,80.079c0,7.329-0.14,14.661,0.055,21.984
		c0.108,4.079-1.32,6.886-4.755,9.159c-23.326,15.436-46.607,30.939-69.813,46.555c-4.042,2.719-7.444,2.574-11.426-0.104
		c-23.069-15.521-46.205-30.945-69.399-46.277c-3.585-2.37-5.08-5.236-5.031-9.523c0.167-14.656,0.167-29.315,0-43.97
		c-0.048-4.273,1.388-7.168,4.986-9.547C28.184,33.025,51.328,17.616,74.38,2.07c4.223-2.848,7.686-2.704,11.848,0.103
		c22.916,15.451,45.916,30.778,68.985,46c3.761,2.48,5.379,5.438,5.226,9.924C160.188,65.416,160.371,72.751,160.371,80.079z
		 M73.133,19.952C54.911,32.109,37.616,43.647,19.85,55.5c7.609,5.091,14.529,9.674,21.388,14.345
		c1.582,1.077,2.852,1.197,4.502,0.074c8.387-5.706,16.878-11.26,25.23-17.017c1.035-0.713,2.047-2.307,2.069-3.51
		C73.208,39.925,73.133,30.455,73.133,19.952z M87.298,19.958c0,10.557-0.062,20.174,0.088,29.788
		c0.017,1.054,1.008,2.435,1.948,3.079c8.369,5.736,16.794,11.395,25.308,16.912c1.008,0.652,3.037,0.918,3.945,0.342
		c7.273-4.611,14.391-9.467,22.053-14.58C122.704,43.548,105.343,31.98,87.298,19.958z M73.135,139.768
		c0-10.437,0.073-19.896-0.09-29.351c-0.021-1.216-0.969-2.84-1.992-3.546c-8.348-5.762-16.779-11.406-25.294-16.918
		c-0.996-0.645-3.022-0.86-3.939-0.279c-7.275,4.615-14.397,9.471-22.004,14.545C37.618,116.088,54.885,127.6,73.135,139.768z
		 M140.627,104.229c-7.679-5.128-14.759-9.764-21.724-14.564c-2.03-1.4-3.375-0.406-4.914,0.628
		c-6.076,4.079-11.898,8.636-18.314,12.082c-6.66,3.577-9.412,8.149-8.549,15.816c0.768,6.811,0.162,13.776,0.162,21.581
		C105.37,127.722,122.628,116.223,140.627,104.229z M80.238,63.823c-7.734,5.183-15.518,10.398-23.931,16.036
		c7.928,5.312,15.155,10.261,22.543,14.956c0.834,0.529,2.805-0.012,3.862-0.674c4.787-2.998,9.446-6.203,14.129-9.365
		c2.267-1.531,4.484-3.133,7.178-5.021C95.781,74.235,88.205,69.16,80.238,63.823z M14.351,90.887
		c5.798-3.881,10.831-7.248,16.474-11.025c-5.735-3.84-10.817-7.241-16.474-11.028C14.351,76.579,14.351,83.213,14.351,90.887z
		 M145.955,68.946c-5.653,3.775-10.759,7.184-16.354,10.92c5.859,3.897,10.903,7.251,16.354,10.876
		C145.955,83.196,145.955,76.469,145.955,68.946z"/>
	<path fill-rule="evenodd" clip-rule="evenodd" fill="none" d="M73.133,19.952c0,10.503,0.075,19.974-0.094,29.44
		c-0.021,1.204-1.034,2.797-2.069,3.51c-8.352,5.757-16.843,11.312-25.23,17.017c-1.651,1.123-2.921,1.003-4.502-0.074
		C34.379,65.174,27.459,60.591,19.85,55.5C37.616,43.647,54.911,32.109,73.133,19.952z"/>
	<path fill-rule="evenodd" clip-rule="evenodd" fill="none" d="M87.298,19.958c18.045,12.023,35.406,23.591,53.342,35.541
		c-7.662,5.113-14.779,9.969-22.053,14.58c-0.908,0.576-2.938,0.31-3.945-0.342c-8.514-5.517-16.938-11.176-25.308-16.912
		c-0.94-0.645-1.932-2.025-1.948-3.079C87.236,40.131,87.298,30.514,87.298,19.958z"/>
	<path fill-rule="evenodd" clip-rule="evenodd" fill="none" d="M73.135,139.768c-18.25-12.168-35.517-23.68-53.319-35.549
		c7.606-5.074,14.729-9.93,22.004-14.545c0.917-0.581,2.944-0.365,3.939,0.279c8.515,5.512,16.947,11.156,25.294,16.918
		c1.022,0.706,1.971,2.33,1.992,3.546C73.208,119.872,73.135,129.331,73.135,139.768z"/>
	<path fill-rule="evenodd" clip-rule="evenodd" fill="none" d="M140.627,104.229c-17.999,11.994-35.257,23.493-53.339,35.543
		c0-7.805,0.605-14.771-0.162-21.581c-0.863-7.667,1.889-12.239,8.549-15.816c6.416-3.446,12.238-8.003,18.314-12.082
		c1.539-1.034,2.884-2.028,4.914-0.628C125.868,94.465,132.948,99.101,140.627,104.229z"/>
	<path fill-rule="evenodd" clip-rule="evenodd" fill="none" d="M80.238,63.823c7.967,5.337,15.543,10.413,23.78,15.931
		c-2.693,1.889-4.911,3.49-7.178,5.021c-4.683,3.162-9.342,6.367-14.129,9.365c-1.057,0.662-3.028,1.203-3.862,0.674
		c-7.388-4.695-14.615-9.645-22.543-14.956C64.721,74.221,72.504,69.006,80.238,63.823z"/>
	<path fill-rule="evenodd" clip-rule="evenodd" fill="none" d="M14.351,90.887c0-7.674,0-14.308,0-22.053
		c5.657,3.787,10.739,7.188,16.474,11.028C25.181,83.639,20.149,87.006,14.351,90.887z"/>
	<path fill-rule="evenodd" clip-rule="evenodd" fill="none" d="M145.955,68.946c0,7.523,0,14.25,0,21.796
		c-5.45-3.625-10.494-6.979-16.354-10.876C135.196,76.13,140.302,72.721,145.955,68.946z"/>
</g>
</svg>
