<?xml version="1.0" encoding="utf-8"?>
<!-- Generator: Adobe Illustrator 16.0.4, SVG Export Plug-In . SVG Version: 6.00 Build 0)  -->
<!DOCTYPE svg PUBLIC "-//W3C//DTD SVG 1.1//EN" "http://www.w3.org/Graphics/SVG/1.1/DTD/svg11.dtd">
<svg version="1.1" id="Layer_1" xmlns="http://www.w3.org/2000/svg" xmlns:xlink="http://www.w3.org/1999/xlink" x="0px" y="0px"
	 width="2559.802px" height="2559.837px" viewBox="0 0 2559.802 2559.837" enable-background="new 0 0 2559.802 2559.837"
	 xml:space="preserve">
<g>
	<path fill-rule="evenodd" clip-rule="evenodd" fill="#FFFFFF" d="M1280.435,0C1993.204,0.645,2560.972,580.679,2559.8,1282.004
		c-1.178,705.043-575.422,1280.694-1285.485,1277.822C574.585,2556.996-1.544,1988.729,0.003,1276.886
		C1.54,570.294,574.884-0.194,1280.435,0z M626.429,2119.812c296.19,239.433,710.468,285.134,1028.755,155.865
		c2.114-7.651,0.382-15.609-0.694-23.36c-6.506-46.837-12.64-93.743-20.24-140.407c-16.812-103.228-37.87-205.614-63.065-307.14
		c-30.336-122.241-66.873-242.612-108.805-361.358c-1.714-4.853-4.237-9.42-6.752-14.928c-41.239,8.842-80.996,19.274-118.699,36.53
		c-137.085,62.746-263.927,141.722-378.663,239.736c-114.395,97.723-211.927,209.914-289.167,339.298
		C654.447,2068.594,641.003,2093.858,626.429,2119.812z M1316.352,1092.494c-1.269-0.337-2.663-1.194-3.786-0.925
		c-5.812,1.398-11.61,2.908-17.315,4.697c-159.911,50.137-323.313,84.443-489.288,106.519
		c-56.103,7.462-112.572,12.25-168.92,17.789c-63.703,6.261-127.638,9.239-191.596,10.608
		c-72.631,1.556-145.293,1.938-217.908-1.646c-3.725-0.184-7.512,0.895-11.529,1.42c-0.507,4.995-1.059,8.916-1.282,12.855
		c-3.635,64.14,0.545,127.956,9.883,191.356c16.73,113.598,51.136,221.722,103.133,324.176
		c37.562,74.01,83.141,142.718,136.573,206.203c4.521,5.37,8.321,11.844,16.082,15.528c3.225-5.376,5.935-9.785,8.54-14.254
		c12.413-21.294,24.292-42.919,37.276-63.857c85.531-137.929,193.786-255.652,319.471-357.719
		c128.06-103.996,268.969-186.729,419.787-253.035c35.45-15.584,71.662-28.698,109.482-37.253c4.217-0.954,8.115-3.307,12.088-4.979
		C1374.774,1215.101,1328.84,1112.938,1316.352,1092.494z M1219.851,907.092c-0.282-2.604-0.081-4.084-0.625-5.199
		c-2.333-4.78-4.768-9.52-7.377-14.154c-58.886-104.618-123.41-205.6-194.877-302.104c-62.35-84.19-129.509-164.302-202.973-239.05
		c-5.479-5.576-10.129-12.333-18.958-15.765c-145.42,74.995-267.84,177.666-366.641,308.412
		c-83.938,111.08-169.612,291.176-179.237,376.458c10.13,2.965,20.759,2.884,31.267,3.362
		c235.341,10.692,468.683-6.084,699.823-51.794C1061.183,951.253,1141.286,931.754,1219.851,907.092z M2338.992,1398.448
		c-8.395-0.957-14.266-1.926-20.174-2.254c-75.81-4.21-151.616-8.236-227.57-9.208c-111.258-1.423-222.464-0.642-333.595,5.278
		c-20.613,1.099-41.21,2.581-61.791,4.197c-4.321,0.339-8.537,2.046-13.318,3.251c19.474,64.261,38.927,127.08,57.507,190.157
		c18.619,63.219,34.04,127.278,48.558,191.561c14.666,64.938,28.093,130.128,38.698,195.845
		c10.481,64.954,19.94,130.074,30.031,196.324c3.063-1.246,6.266-1.979,8.836-3.673c67.03-44.138,128.244-95.273,183.756-153.226
		c64.859-67.71,119.875-142.661,165.049-224.826c44.178-80.354,77.315-165.078,99.46-254.023
		C2325.673,1492.722,2334.458,1447.096,2338.992,1398.448z M1959.682,458.484c-90.502-74.863-189.335-132.819-297.739-174.395
		c-147.169-56.443-299.542-78.432-456.706-67.962c-53.761,3.582-165.93,21.367-184.49,33.247c3.033,3.553,5.827,7.183,8.978,10.469
		c78.55,81.919,149.827,169.817,215.598,262.236c65.734,92.367,125.32,188.583,180.127,287.796
		c3.444,6.237,5.369,13.744,12.276,17.767c2.059-0.535,4.07-0.79,5.86-1.562c118.47-51.056,231.021-112.507,333.941-190.761
		c62.267-47.342,119.569-99.981,169.55-160.333C1951.235,469.965,1955.008,464.625,1959.682,458.484z M2092.726,590.25
		c-4.473,5.716-7.028,8.716-9.297,11.921c-32.838,46.383-70.418,88.618-111.492,127.819
		c-72.675,69.36-153.826,127.288-240.225,178.126c-60.888,35.827-123.872,67.542-188.429,96.203
		c-5.073,2.252-12.191,2.471-13.735,8.688c28.887,68.193,57.411,135.531,86.005,203.032c5.841,0,11.125,0.309,16.363-0.049
		c38.541-2.631,77.039-6.076,115.613-7.953c52.561-2.558,105.172-4.054,157.768-5.823c81.928-2.756,163.865-2.613,245.796-0.126
		c57.928,1.759,115.846,3.889,173.774,5.683c5.748,0.179,12.002,2.171,18.233-3.493
		C2325.132,974.183,2242.349,769.975,2092.726,590.25z"/>
	<path fill-rule="evenodd" clip-rule="evenodd" fill="none" d="M626.429,2119.812c14.574-25.954,28.018-51.219,42.67-75.764
		c77.239-129.384,174.771-241.575,289.167-339.298c114.736-98.015,241.577-176.99,378.663-239.736
		c37.703-17.256,77.46-27.688,118.699-36.53c2.515,5.508,5.038,10.075,6.752,14.928c41.932,118.746,78.469,239.117,108.805,361.358
		c25.195,101.525,46.254,203.912,63.065,307.14c7.601,46.664,13.734,93.57,20.24,140.407c1.076,7.751,2.809,15.709,0.694,23.36
		C1336.897,2404.946,922.62,2359.245,626.429,2119.812z"/>
	<path fill-rule="evenodd" clip-rule="evenodd" fill="none" d="M1316.352,1092.495c12.488,20.443,58.422,122.605,70.691,157.481
		c-3.973,1.672-7.871,4.025-12.088,4.979c-37.82,8.556-74.032,21.669-109.482,37.253
		c-150.818,66.305-291.727,149.039-419.787,253.035c-125.685,102.066-233.939,219.79-319.471,357.719
		c-12.985,20.938-24.863,42.563-37.276,63.857c-2.605,4.469-5.315,8.878-8.54,14.254c-7.761-3.685-11.561-10.158-16.082-15.528
		c-53.432-63.485-99.011-132.193-136.573-206.203c-51.998-102.454-86.403-210.578-103.133-324.176
		c-9.338-63.4-13.518-127.216-9.883-191.356c0.224-3.939,0.775-7.86,1.282-12.855c4.018-0.525,7.805-1.604,11.529-1.42
		c72.614,3.583,145.277,3.202,217.908,1.646c63.958-1.369,127.893-4.347,191.596-10.608c56.348-5.539,112.817-10.327,168.92-17.789
		c165.975-22.076,329.377-56.382,489.288-106.519c5.705-1.789,11.503-3.298,17.315-4.697
		C1313.689,1091.3,1315.083,1092.157,1316.352,1092.495z"/>
	<path fill-rule="evenodd" clip-rule="evenodd" fill="none" d="M1219.851,907.092c-78.565,24.663-158.668,44.161-239.598,60.166
		c-231.14,45.71-464.482,62.486-699.823,51.794c-10.507-0.478-21.136-0.396-31.267-3.362
		c9.625-85.282,95.299-265.378,179.237-376.458c98.8-130.746,221.22-233.417,366.641-308.412
		c8.828,3.432,13.478,10.189,18.958,15.765c73.464,74.749,140.623,154.86,202.973,239.05
		c71.467,96.503,135.991,197.486,194.877,302.104c2.609,4.634,5.043,9.374,7.377,14.154
		C1219.77,903.008,1219.569,904.487,1219.851,907.092z"/>
	<path fill-rule="evenodd" clip-rule="evenodd" fill="none" d="M2338.992,1398.448c-4.533,48.648-13.318,94.273-24.554,139.402
		c-22.145,88.945-55.282,173.67-99.46,254.023c-45.174,82.165-100.189,157.116-165.049,224.826
		c-55.512,57.952-116.726,109.088-183.756,153.226c-2.57,1.693-5.772,2.427-8.836,3.673c-10.091-66.25-19.55-131.37-30.031-196.324
		c-10.605-65.717-24.032-130.907-38.698-195.845c-14.518-64.282-29.938-128.342-48.558-191.561
		c-18.58-63.077-38.033-125.896-57.507-190.157c4.781-1.206,8.997-2.913,13.318-3.251c20.581-1.616,41.178-3.098,61.791-4.197
		c111.131-5.919,222.337-6.701,333.595-5.278c75.954,0.972,151.761,4.998,227.57,9.208
		C2324.726,1396.522,2330.597,1397.491,2338.992,1398.448z"/>
	<path fill-rule="evenodd" clip-rule="evenodd" fill="none" d="M1959.682,458.484c-4.674,6.14-8.447,11.48-12.605,16.501
		c-49.98,60.352-107.283,112.992-169.55,160.333c-102.92,78.254-215.471,139.705-333.941,190.761
		c-1.79,0.771-3.801,1.026-5.86,1.562c-6.907-4.023-8.832-11.53-12.276-17.767c-54.807-99.213-114.393-195.429-180.127-287.796
		c-65.771-92.419-137.048-180.317-215.598-262.236c-3.151-3.286-5.945-6.916-8.978-10.469
		c18.56-11.879,130.729-29.665,184.49-33.247c157.164-10.47,309.537,11.519,456.706,67.962
		C1770.347,325.665,1869.18,383.621,1959.682,458.484z"/>
	<path fill-rule="evenodd" clip-rule="evenodd" fill="none" d="M2092.726,590.25c149.623,179.725,232.406,383.932,250.376,614.028
		c-6.231,5.664-12.485,3.671-18.233,3.493c-57.929-1.793-115.847-3.924-173.774-5.683c-81.931-2.487-163.868-2.63-245.796,0.126
		c-52.596,1.769-105.207,3.265-157.768,5.823c-38.574,1.877-77.072,5.322-115.613,7.953c-5.238,0.357-10.522,0.049-16.363,0.049
		c-28.595-67.501-57.118-134.839-86.005-203.032c1.543-6.218,8.662-6.437,13.735-8.688c64.557-28.661,127.541-60.376,188.429-96.203
		c86.398-50.838,167.55-108.766,240.225-178.126c41.074-39.201,78.654-81.436,111.492-127.819
		C2085.698,598.967,2088.253,595.966,2092.726,590.25z"/>
</g>
</svg>
