<?xml version="1.0" encoding="utf-8"?>
<!-- Generator: Adobe Illustrator 16.0.4, SVG Export Plug-In . SVG Version: 6.00 Build 0)  -->
<!DOCTYPE svg PUBLIC "-//W3C//DTD SVG 1.1//EN" "http://www.w3.org/Graphics/SVG/1.1/DTD/svg11.dtd">
<svg version="1.1" id="Layer_1" xmlns="http://www.w3.org/2000/svg" xmlns:xlink="http://www.w3.org/1999/xlink" x="0px" y="0px"
	 width="202.473px" height="435.906px" viewBox="0 0 202.473 435.906" enable-background="new 0 0 202.473 435.906"
	 xml:space="preserve">
<g>
	<path fill="#FFFFFF" d="M200.937,74.99c0-24.848,0-49.538,0-74.49c-0.838-0.109-1.631-0.302-2.424-0.303
		c-23.496-0.049-46.999-0.423-70.486,0.009c-15.813,0.291-31.118,3.753-44.884,11.985C57.298,27.648,45.843,51.916,43.586,80.712
		c-1.416,18.062-0.6,36.3-0.779,54.459c-0.019,1.901-0.003,3.803-0.003,6.229c-14.808,0-28.715,0-42.804,0
		c0,25.784,0,51.029,0,76.999c14.329,0,28.362,0,42.992,0c0,72.941,0,145.161,0,217.508c30.374,0,60.13,0,90.546,0
		c0-72.618,0-144.97,0-217.74c20.602,0,40.546,0,61.03,0c2.641-25.744,5.245-51.123,7.905-77.037c-23.332,0-45.926,0-68.771,0
		c-0.124-1.563-0.288-2.687-0.29-3.81c-0.017-13.831-0.097-27.663,0.017-41.494c0.113-13.864,7.229-20.811,21.11-20.831
		C169.867,74.973,185.195,74.99,200.937,74.99z"/>
	<path fill-rule="evenodd" clip-rule="evenodd" fill="#FFFFFF" d="M200.937,74.99c-15.742,0-31.07-0.017-46.398,0.005
		c-13.882,0.02-20.997,6.967-21.11,20.831c-0.113,13.831-0.033,27.663-0.017,41.494c0.002,1.123,0.166,2.246,0.29,3.81
		c22.846,0,45.439,0,68.771,0c-2.66,25.914-5.265,51.293-7.905,77.037c-20.484,0-40.429,0-61.03,0c0,72.771,0,145.122,0,217.74
		c-30.416,0-60.172,0-90.546,0c0-72.347,0-144.566,0-217.508c-14.63,0-28.663,0-42.992,0c0-25.97,0-51.215,0-76.999
		c14.088,0,27.996,0,42.804,0c0-2.426-0.016-4.328,0.003-6.229c0.18-18.159-0.637-36.396,0.779-54.459
		c2.257-28.796,13.712-53.064,39.557-68.521c13.766-8.232,29.071-11.694,44.884-11.985c23.487-0.432,46.99-0.058,70.486-0.009
		c0.793,0.001,1.586,0.194,2.424,0.303C200.937,25.452,200.937,50.142,200.937,74.99z"/>
</g>
</svg>
