<?xml version="1.0" encoding="utf-8"?>
<!-- Generator: Adobe Illustrator 16.0.4, SVG Export Plug-In . SVG Version: 6.00 Build 0)  -->
<!DOCTYPE svg PUBLIC "-//W3C//DTD SVG 1.1//EN" "http://www.w3.org/Graphics/SVG/1.1/DTD/svg11.dtd">
<svg version="1.1" id="Layer_1" xmlns="http://www.w3.org/2000/svg" xmlns:xlink="http://www.w3.org/1999/xlink" x="0px" y="0px"
	 width="420.758px" height="407.101px" viewBox="0 0 420.758 407.101" enable-background="new 0 0 420.758 407.101"
	 xml:space="preserve">
<g>
	<path fill="#FFFFFF" d="M249.159,301.235c11.491,12.185,13.719,26.749,13.576,42.105c-0.157,16.999-0.165,33.999-0.183,50.998
		c-0.011,10.687,6.104,15.01,16.335,11.64c102.559-33.781,162.738-144.685,135.199-249.154
		C385.837,49.658,279.311-17.222,170.483,3.884C75.018,22.397,4.71,101.092,0.269,197.71c-3.573,77.733,28.6,139.127,92.191,183.876
		c15.32,10.78,32.173,18.803,50.011,24.618c7.909,2.579,14.952-0.833,15.18-7.865c0.43-13.289,0.125-26.602,0.125-39.44
		c-9.935,0.438-19.407,1.69-28.761,1.096c-20.096-1.277-35.514-9.996-43.507-29.674c-4.785-11.781-12.011-21.856-23.261-28.564
		c-1.967-1.173-3.742-2.834-5.249-4.578c-2.594-3.005-2.038-5.393,1.785-6.208c3.323-0.708,7.005-0.962,10.31-0.308
		c13.145,2.604,22.042,11.025,28.856,22.079c14.1,22.872,36.085,25.551,57.91,17.081c1.155-0.448,2.513-1.839,2.737-2.992
		c1.837-9.488,5.467-18.088,12.338-25.443c-9.116-1.834-17.814-3.189-26.303-5.363c-29.977-7.679-52.35-24.336-62.303-54.741
		c-2.419-7.389-4.064-15.129-5.15-22.837c-3.841-27.273-0.37-52.856,18.458-74.629c0.926-1.071,1.258-3.381,0.823-4.793
		c-4.561-14.836-3.865-29.589,0.354-44.312c2.654-9.261,3.602-9.758,13.405-8.098c16.292,2.758,30.308,10.68,44.129,19.16
		c1.841,1.129,4.712,1.665,6.789,1.162c32.68-7.916,65.295-7.946,97.983-0.04c2.204,0.533,5.125-0.216,7.237-1.297
		c7.4-3.784,14.44-8.288,21.904-11.931c8.861-4.324,18.18-7.386,28.228-7.605c2.877-0.062,4.492,0.84,5.505,3.768
		c5.541,16.007,7.085,32.159,1.966,48.523c-0.895,2.86-0.181,4.551,1.57,6.605c7.783,9.136,13.597,19.446,16.173,31.188
		c5.829,26.565,3.179,52.464-8.592,76.963c-11.622,24.191-32.664,36.561-57.77,42.891
		C266.998,298.104,258.454,299.402,249.159,301.235z M135.896,336.479c-1.808,1.97-2.979,3.244-4.149,4.52
		c1.375,0.955,2.811,2.748,4.106,2.651c1.582-0.118,3.045-1.822,4.56-2.841C139.145,339.594,137.876,338.377,135.896,336.479z
		 M105.271,334.944c1.49-2.347,2.943-3.949,2.674-4.328c-1.214-1.708-2.827-3.194-4.541-4.419c-0.249-0.178-2.759,1.998-2.632,2.234
		C101.807,330.369,103.219,332.104,105.271,334.944z M119.093,342.319c1.831-1.478,2.971-2.397,4.111-3.317
		c-1.615-1.316-3.076-3.017-4.921-3.762c-0.753-0.304-2.342,1.463-3.55,2.287C116.036,338.959,117.339,340.392,119.093,342.319z
		 M152.239,334.476c-1.879,2.085-3.167,3.513-4.455,4.94c1.285,0.833,2.805,2.564,3.804,2.304c1.796-0.47,3.279-2.135,4.894-3.301
		C155.299,337.32,154.117,336.222,152.239,334.476z M98.293,318.303c-2.206-1.756-3.725-2.965-5.243-4.175
		c-0.76,1.004-2.359,2.596-2.138,2.911c1.101,1.568,2.609,2.898,4.178,4.03C95.292,321.215,96.679,319.72,98.293,318.303z
		 M86.503,310.522c0.999-1.782,2.076-3.144,1.854-3.405c-1.175-1.389-2.676-2.501-4.064-3.709c-0.533,0.879-1.721,2.088-1.476,2.575
		C83.538,307.412,84.828,308.554,86.503,310.522z"/>
	<path fill-rule="evenodd" clip-rule="evenodd" fill="#FFFFFF" d="M249.159,301.234c9.295-1.832,17.84-3.131,26.182-5.232
		c25.105-6.33,46.146-18.699,57.77-42.891c11.77-24.5,14.42-50.398,8.592-76.963c-2.576-11.742-8.391-22.053-16.174-31.188
		c-1.75-2.055-2.465-3.745-1.57-6.605c5.119-16.364,3.576-32.517-1.965-48.523c-1.014-2.928-2.629-3.83-5.506-3.768
		c-10.047,0.22-19.365,3.281-28.227,7.605c-7.465,3.643-14.504,8.146-21.904,11.931c-2.113,1.081-5.033,1.83-7.238,1.297
		c-32.688-7.906-65.303-7.876-97.983,0.04c-2.076,0.503-4.948-0.033-6.789-1.162c-13.821-8.48-27.837-16.402-44.129-19.16
		c-9.803-1.66-10.75-1.163-13.405,8.098c-4.219,14.723-4.915,29.476-0.354,44.312c0.435,1.412,0.103,3.722-0.823,4.793
		c-18.828,21.772-22.299,47.355-18.458,74.629c1.085,7.707,2.731,15.447,5.15,22.836c9.954,30.406,32.327,47.062,62.303,54.742
		c8.489,2.174,17.187,3.529,26.303,5.363c-6.871,7.355-10.501,15.955-12.338,25.443c-0.224,1.152-1.582,2.543-2.737,2.992
		c-21.825,8.469-43.81,5.791-57.91-17.082c-6.814-11.053-15.712-19.475-28.856-22.078c-3.304-0.654-6.987-0.4-10.31,0.307
		c-3.823,0.816-4.379,3.203-1.785,6.209c1.506,1.744,3.281,3.404,5.249,4.578c11.25,6.707,18.476,16.783,23.261,28.564
		c7.993,19.678,23.411,28.396,43.507,29.674c9.354,0.594,18.827-0.658,28.761-1.096c0,12.838,0.306,26.15-0.125,39.439
		c-0.228,7.033-7.271,10.445-15.18,7.865c-17.837-5.814-34.69-13.838-50.011-24.617C28.869,336.836-3.304,275.443,0.269,197.709
		C4.71,101.091,75.019,22.397,170.484,3.883c108.827-21.105,215.354,45.774,243.603,152.94
		c27.539,104.469-32.641,215.374-135.199,249.155c-10.23,3.369-16.346-0.953-16.334-11.641c0.018-16.998,0.025-33.998,0.182-50.998
		C262.877,327.984,260.651,313.42,249.159,301.234z"/>
	<path fill-rule="evenodd" clip-rule="evenodd" fill="#FFFFFF" d="M135.896,336.479c1.98,1.897,3.249,3.114,4.517,4.33
		c-1.515,1.019-2.978,2.723-4.56,2.841c-1.295,0.097-2.732-1.696-4.106-2.651C132.917,339.724,134.088,338.449,135.896,336.479z"/>
	<path fill-rule="evenodd" clip-rule="evenodd" fill="#FFFFFF" d="M105.271,334.944c-2.052-2.84-3.464-4.575-4.5-6.513
		c-0.126-0.236,2.383-2.412,2.632-2.234c1.714,1.225,3.327,2.711,4.541,4.419C108.214,330.995,106.761,332.598,105.271,334.944z"/>
	<path fill-rule="evenodd" clip-rule="evenodd" fill="#FFFFFF" d="M119.093,342.319c-1.754-1.928-3.058-3.36-4.361-4.792
		c1.208-0.824,2.797-2.591,3.55-2.287c1.846,0.745,3.306,2.445,4.921,3.762C122.064,339.922,120.924,340.842,119.093,342.319z"/>
	<path fill-rule="evenodd" clip-rule="evenodd" fill="#FFFFFF" d="M152.239,334.476c1.878,1.746,3.06,2.845,4.242,3.943
		c-1.614,1.166-3.098,2.831-4.894,3.301c-0.999,0.261-2.519-1.471-3.804-2.304C149.071,337.988,150.359,336.561,152.239,334.476z"/>
	<path fill-rule="evenodd" clip-rule="evenodd" fill="#FFFFFF" d="M98.293,318.303c-1.614,1.417-3,2.912-3.203,2.767
		c-1.568-1.132-3.077-2.462-4.178-4.03c-0.221-0.315,1.378-1.907,2.138-2.911C94.568,315.338,96.087,316.547,98.293,318.303z"/>
	<path fill-rule="evenodd" clip-rule="evenodd" fill="#FFFFFF" d="M86.503,310.522c-1.676-1.969-2.966-3.11-3.686-4.539
		c-0.246-0.487,0.943-1.696,1.476-2.575c1.388,1.208,2.89,2.32,4.064,3.709C88.58,307.379,87.502,308.74,86.503,310.522z"/>
</g>
</svg>
