<?xml version="1.0" encoding="utf-8"?>
<!-- Generator: Adobe Illustrator 16.0.4, SVG Export Plug-In . SVG Version: 6.00 Build 0)  -->
<!DOCTYPE svg PUBLIC "-//W3C//DTD SVG 1.1//EN" "http://www.w3.org/Graphics/SVG/1.1/DTD/svg11.dtd">
<svg version="1.1" id="Layer_1" xmlns="http://www.w3.org/2000/svg" xmlns:xlink="http://www.w3.org/1999/xlink" x="0px" y="0px"
	 width="257px" height="257px" viewBox="0 0 257 257" enable-background="new 0 0 257 257" xml:space="preserve">
<g>
	<path fill="#FFFFFF" d="M256.523,117.444c-7.778,0-15.186,0-23.24,0c0-7.77,0-14.988,0-22.345c-7.945,0-15.225,0-23.155,0
		c0,7.443,0,14.673,0,22.551c-8.027,0-15.425,0-22.73,0c0,7.887,0,15.097,0,22.764c7.689,0,14.958,0,22.788,0
		c0,7.709,0,14.964,0,22.332c7.967,0,15.348,0,23.329,0c0-7.558,0-14.792,0-22.539c7.993,0,15.399,0,23.009,0
		C256.523,132.564,256.523,125.457,256.523,117.444z"/>
	<path fill-rule="evenodd" clip-rule="evenodd" fill="#FFFFFF" d="M0.75,122.125c0.65-3.076,1.33-6.146,1.947-9.229
		C14.349,54.758,87.841,29.06,133.143,67.293c1.125,0.95,2.146,2.022,3.45,3.261c-7.317,6.934-14.411,13.657-21.437,20.314
		c-24.641-16.016-47.283-15.744-65.812,0.566c-17.081,15.036-22.031,39.382-12.131,59.665
		c10.144,20.782,32.593,31.762,55.879,27.333c18.32-3.485,33.361-17.693,34.668-33.327c-7.461,0-14.885,0-22.31,0
		c-7.454,0-14.907,0-22.645,0c0-9.106,0-17.704,0-26.788c1.376-0.103,2.805-0.301,4.233-0.302
		c22.491-0.02,44.983,0.056,67.474-0.088c3.495-0.022,5.052,0.792,5.348,4.546c1.312,16.628-0.806,32.619-8.536,47.552
		c-15.545,30.031-46.434,41.089-75.862,38.608c-42.078-3.546-70.365-36.044-73.899-70.176c-0.083-0.797-0.534-1.556-0.813-2.333
		C0.75,131.458,0.75,126.792,0.75,122.125z"/>
	<path fill-rule="evenodd" clip-rule="evenodd" fill="#FFFFFF" d="M256.523,117.444c0,8.013,0,15.121,0,22.763
		c-7.609,0-15.016,0-23.009,0c0,7.748,0,14.981,0,22.539c-7.981,0-15.362,0-23.329,0c0-7.368,0-14.623,0-22.332
		c-7.83,0-15.099,0-22.788,0c0-7.667,0-14.877,0-22.764c7.306,0,14.703,0,22.73,0c0-7.878,0-15.108,0-22.551
		c7.931,0,15.21,0,23.155,0c0,7.356,0,14.575,0,22.345C241.338,117.444,248.745,117.444,256.523,117.444z"/>
</g>
</svg>
