<?xml version="1.0" encoding="utf-8"?>
<!-- Generator: Adobe Illustrator 16.0.4, SVG Export Plug-In . SVG Version: 6.00 Build 0)  -->
<!DOCTYPE svg PUBLIC "-//W3C//DTD SVG 1.1//EN" "http://www.w3.org/Graphics/SVG/1.1/DTD/svg11.dtd">
<svg version="1.1" id="Layer_1" xmlns="http://www.w3.org/2000/svg" xmlns:xlink="http://www.w3.org/1999/xlink" x="0px" y="0px"
	 width="506.883px" height="506.883px" viewBox="0 0 506.883 506.883" enable-background="new 0 0 506.883 506.883"
	 xml:space="preserve">
<g>
	<path fill="#FFFFFF" d="M0,403.922c0-96.36,0-192.721,0-289.082c0.315-1.42,0.79-2.827,0.922-4.264
		c1.413-15.365,4.807-30.263,10.951-44.429C23.96,38.272,43.324,17.539,72.318,7.17C81.84,3.766,92.066,2.334,101.97,0
		c103.291,0,206.582,0,309.872,0c3.985,0.902,8.025,1.613,11.949,2.736c38.122,10.911,61.771,36.989,74.706,73.258
		c4.309,12.08,5.675,25.208,8.386,37.856c0,95.371,0,190.742,0,286.112c-1.004,5.639-1.708,11.35-3.058,16.903
		c-9.896,40.735-33.83,69.375-73.567,83.78c-8.425,3.055-17.539,4.208-26.336,6.237c-97.681,0-195.361,0-293.042,0
		c-6.46-1.011-12.946-1.88-19.376-3.056c-46.699-8.536-79.86-36.002-89.02-84.895C1.551,413.949,0.823,408.926,0,403.922z
		 M367.352,180.505c27.34,65.442,17.357,122.341-40.393,166.282c-39.598,30.129-98.136,34.145-142.948,2.654
		c-61.479-43.203-72.422-101.512-44.507-169.095c-39.074,0-78.459,0-118.454,0c0,2.321,0,4.416,0,6.511
		c0,65.99-0.068,131.98,0.079,197.969c0.02,9.205,0.475,18.501,1.809,27.596c4.213,28.729,18.73,50.208,45.601,62.589
		c18.715,8.623,38.676,10.716,58.873,10.752c88.262,0.156,176.524,0.131,264.785,0.031c27.982-0.032,51.906-9.77,70.443-31.208
		c16.783-19.409,23.186-42.479,23.188-67.682c0.009-66.98,0.003-133.96,0.003-200.94c0-1.752,0-3.504,0-5.459
		C445.76,180.505,406.403,180.505,367.352,180.505z M485.83,157.5c0-10.875,0.078-21.072-0.016-31.267
		c-0.196-21.242-3.872-41.746-14.675-60.324c-16.598-28.546-40.219-45.152-74.655-44.987c-83.147,0.398-166.297,0.129-249.446,0.129
		c-2.072,0-4.145,0-6.318,0c0,34.245,0.005,67.728-0.011,101.211c-0.001,2.14,0.054,4.319-0.308,6.412
		c-0.824,4.769-4.851,8.173-9.639,8.446c-4.719,0.269-9.123-2.739-10.42-7.424c-0.518-1.87-0.596-3.907-0.598-5.868
		c-0.033-32.831-0.023-65.662-0.023-98.492c0-1.265,0-2.53,0-3.729c-5.118,0-9.776,0-14.649,0c0,1.359,0,2.166,0,2.972
		c0.002,32.666,0.009,65.332-0.003,97.997c-0.001,1.977,0.061,3.988-0.269,5.921c-1.019,5.966-6.452,9.512-12.419,8.27
		c-5.471-1.139-8.282-5.186-8.289-12.263c-0.029-31.181-0.01-62.362-0.023-93.543c0-1.711-0.146-3.423-0.265-6.01
		c-5.236,2.151-9.749,4.006-14.365,5.903c0,20.906,0.001,41.521,0,62.137c0,10.889,0.086,21.778-0.042,32.666
		c-0.08,6.783-3.933,11.075-9.847,11.454c-6.552,0.419-11.071-4.431-11.089-12.223c-0.057-23.757-0.021-47.514-0.022-71.271
		c0-1.651,0-3.301,0-4.952c-3.492,3.013-5.99,6.072-8.145,9.356c-14.155,21.574-18.888,45.734-19.221,71.049
		c-0.123,9.363-0.02,18.729-0.02,28.419c1.959,0.143,3.396,0.338,4.833,0.338c42.729,0.022,85.459,0.049,128.188-0.061
		c1.503-0.004,3.386-1.029,4.447-2.175c20.32-21.94,45.091-35.887,74.685-40.235c44.152-6.488,82.03,6.551,113.264,38.46
		c2.503,2.557,4.814,3.779,8.465,3.768c41.739-0.134,83.479-0.085,125.219-0.085C481.79,157.5,483.427,157.5,485.83,157.5z
		 M146.143,242.112c0.156,59.163,48.444,107.4,107.399,107.287c59.065-0.114,107.34-48.549,107.151-107.505
		c-0.189-59.257-48.341-107.349-107.371-107.237C194.236,134.768,145.987,183.142,146.143,242.112z"/>
	<path fill-rule="evenodd" clip-rule="evenodd" fill="none" d="M367.352,180.505c39.051,0,78.408,0,118.479,0
		c0,1.955,0,3.707,0,5.459c0,66.98,0.006,133.96-0.003,200.94c-0.003,25.202-6.405,48.272-23.188,67.682
		c-18.537,21.438-42.461,31.176-70.443,31.208c-88.261,0.1-176.523,0.125-264.785-0.031c-20.197-0.036-40.158-2.129-58.873-10.752
		c-26.871-12.381-41.388-33.859-45.601-62.589c-1.333-9.095-1.789-18.391-1.809-27.596c-0.147-65.989-0.079-131.979-0.079-197.969
		c0-2.095,0-4.189,0-6.511c39.995,0,79.38,0,118.454,0c-27.915,67.583-16.972,125.892,44.507,169.095
		c44.812,31.49,103.351,27.475,142.948-2.654C384.709,302.846,394.692,245.948,367.352,180.505z"/>
	<path fill-rule="evenodd" clip-rule="evenodd" fill="none" d="M485.83,157.5c-2.402,0-4.04,0-5.677,0
		c-41.739,0-83.479-0.049-125.219,0.085c-3.65,0.011-5.962-1.21-8.465-3.768c-31.233-31.909-69.111-44.948-113.264-38.46
		c-29.594,4.348-54.364,18.294-74.685,40.235c-1.062,1.146-2.944,2.171-4.447,2.175c-42.729,0.109-85.458,0.083-128.188,0.061
		c-1.437,0-2.874-0.196-4.833-0.338c0-9.689-0.103-19.056,0.02-28.419c0.333-25.315,5.066-49.475,19.221-71.049
		c2.155-3.284,4.653-6.344,8.145-9.356c0,1.651,0,3.301,0,4.952c0,23.757-0.035,47.514,0.022,71.271
		c0.019,7.792,4.537,12.642,11.089,12.223c5.915-0.379,9.768-4.671,9.847-11.454c0.128-10.887,0.041-21.777,0.042-32.666
		c0.001-20.615,0-41.23,0-62.137c4.617-1.897,9.129-3.751,14.365-5.903c0.119,2.587,0.264,4.299,0.265,6.01
		c0.014,31.181-0.006,62.362,0.023,93.543c0.007,7.077,2.818,11.124,8.289,12.263c5.967,1.242,11.4-2.304,12.419-8.27
		c0.33-1.933,0.268-3.945,0.269-5.921c0.012-32.665,0.005-65.331,0.003-97.997c0-0.806,0-1.612,0-2.972c4.873,0,9.531,0,14.649,0
		c0,1.199,0,2.464,0,3.729c0,32.831-0.01,65.661,0.023,98.492c0.002,1.961,0.08,3.998,0.598,5.868
		c1.297,4.685,5.701,7.693,10.42,7.424c4.788-0.273,8.815-3.678,9.639-8.446c0.361-2.093,0.307-4.271,0.308-6.412
		c0.016-33.483,0.011-66.967,0.011-101.211c2.173,0,4.246,0,6.318,0c83.149,0,166.299,0.269,249.446-0.129
		c34.437-0.165,58.058,16.441,74.655,44.987c10.803,18.578,14.479,39.083,14.675,60.324
		C485.908,136.428,485.83,146.625,485.83,157.5z M395.982,49.389c-5.765,0-11.534-0.133-17.294,0.027
		c-12.94,0.36-22.6,9.423-23.067,22.322c-0.435,12.008-0.418,24.055-0.004,36.064c0.421,12.16,8.996,21.372,21.129,22.022
		c12.8,0.686,25.692,0.689,38.491-0.001c12.139-0.655,20.667-9.802,21.12-22.031c0.443-12.007,0.464-24.057-0.006-36.062
		c-0.507-12.958-10.141-21.961-23.075-22.316C407.516,49.256,401.748,49.388,395.982,49.389z"/>
	<path fill-rule="evenodd" clip-rule="evenodd" fill="none" d="M146.143,242.112c-0.156-58.971,48.094-107.344,107.179-107.456
		c59.03-0.111,107.182,47.98,107.371,107.237c0.188,58.956-48.086,107.391-107.151,107.505
		C194.587,349.512,146.299,301.275,146.143,242.112z M253.665,161.155c-44.543-0.204-80.808,35.733-81.231,80.496
		c-0.42,44.314,35.844,80.886,80.517,81.2c44.747,0.315,81.381-35.972,81.507-80.733
		C334.582,197.676,298.34,161.359,253.665,161.155z"/>
	<path fill-rule="evenodd" clip-rule="evenodd" fill="#FFFFFF" d="M395.982,49.388c5.766,0,11.534-0.132,17.294,0.026
		c12.935,0.355,22.568,9.359,23.075,22.316c0.47,12.005,0.449,24.055,0.006,36.062c-0.453,12.229-8.981,21.376-21.12,22.031
		c-12.799,0.69-25.691,0.687-38.491,0.001c-12.133-0.65-20.708-9.862-21.129-22.022c-0.414-12.009-0.431-24.056,0.004-36.064
		c0.468-12.899,10.127-21.962,23.067-22.322C384.448,49.256,390.217,49.389,395.982,49.388z"/>
	<path fill-rule="evenodd" clip-rule="evenodd" fill="#FFFFFF" d="M253.665,161.155c44.676,0.204,80.917,36.521,80.792,80.963
		c-0.126,44.762-36.76,81.049-81.507,80.733c-44.673-0.314-80.937-36.886-80.517-81.2
		C172.857,196.888,209.122,160.951,253.665,161.155z M253.233,201.678c-22.186,0.181-40.235,18.222-40.292,40.272
		c-0.057,22.181,18.42,40.519,40.689,40.384c22.129-0.136,40.233-18.237,40.293-40.285
		C293.982,219.892,275.442,201.497,253.233,201.678z"/>
	<path fill-rule="evenodd" clip-rule="evenodd" fill="none" d="M253.233,201.678c22.208-0.181,40.749,18.214,40.69,40.371
		c-0.06,22.048-18.164,40.149-40.293,40.285c-22.269,0.135-40.746-18.203-40.689-40.384
		C212.998,219.899,231.048,201.859,253.233,201.678z"/>
</g>
</svg>
