<?xml version="1.0" encoding="utf-8"?>
<!-- Generator: Adobe Illustrator 16.0.4, SVG Export Plug-In . SVG Version: 6.00 Build 0)  -->
<!DOCTYPE svg PUBLIC "-//W3C//DTD SVG 1.1//EN" "http://www.w3.org/Graphics/SVG/1.1/DTD/svg11.dtd">
<svg version="1.1" id="Layer_1" xmlns="http://www.w3.org/2000/svg" xmlns:xlink="http://www.w3.org/1999/xlink" x="0px" y="0px"
	 width="320.253px" height="305.479px" viewBox="0 0 320.253 305.479" enable-background="new 0 0 320.253 305.479"
	 xml:space="preserve">
<g>
	<path fill-rule="evenodd" clip-rule="evenodd" fill="#FFFFFF" d="M179.428,99.853c0,9.266,0,18.148,0,28.157
		c1.353-1.603,2.005-2.256,2.52-3.005c17.463-25.386,42.392-33.433,71.603-29.473c35.816,4.856,58.584,28.659,64.528,66.22
		c1.193,7.542,2.008,15.229,2.048,22.854c0.205,38.99,0.1,77.981,0.103,116.973c0,1.16,0,2.319,0,3.896c-22.773,0-45.33,0-68.623,0
		c0-1.855,0-3.8,0-5.743c0-34.326,0.138-68.652-0.11-102.976c-0.053-7.435-0.646-15.07-2.448-22.248
		c-6.486-25.849-36.52-34.517-56.355-16.541c-9.479,8.591-13.392,19.456-13.344,32.152c0.137,36.158,0.047,72.316,0.046,108.475
		c0,2.157,0,4.314,0,6.885c-22.804,0-45.329,0-68.164,0c0-68.485,0-136.874,0-205.627C133.821,99.853,156.224,99.853,179.428,99.853
		z"/>
	<path fill-rule="evenodd" clip-rule="evenodd" fill="#FFFFFF" d="M72.742,99.851c0,68.624,0,136.887,0,205.596
		c-22.56,0-45.107,0-68.062,0c0-68.354,0-136.867,0-205.596C27.387,99.851,49.938,99.851,72.742,99.851z"/>
	<path fill-rule="evenodd" clip-rule="evenodd" fill="#FFFFFF" d="M38.496,71.278C10.825,71.314-6.837,47.457,2.532,22.698
		C8.813,6.099,27.113-2.803,47.574,0.79C69.212,4.588,81.98,24.781,76.071,45.855C71.675,61.533,57.308,71.254,38.496,71.278z"/>
</g>
</svg>
