<?xml version="1.0" encoding="utf-8"?>
<!-- Generator: Adobe Illustrator 16.0.4, SVG Export Plug-In . SVG Version: 6.00 Build 0)  -->
<!DOCTYPE svg PUBLIC "-//W3C//DTD SVG 1.1//EN" "http://www.w3.org/Graphics/SVG/1.1/DTD/svg11.dtd">
<svg version="1.1" id="Layer_1" xmlns="http://www.w3.org/2000/svg" xmlns:xlink="http://www.w3.org/1999/xlink" x="0px" y="0px"
	 width="940.678px" height="478.398px" viewBox="0 0 940.678 478.398" enable-background="new 0 0 940.678 478.398"
	 xml:space="preserve">
<g>
	<path fill-rule="evenodd" clip-rule="evenodd" d="M562.691,111.966c0,121.977,0,243.955,0,365.885
		c-1.779,0.576-60.477,0.768-64.162,0.232c0-158.975,0-317.971,0-477.16c0.6-0.063,1.205-0.183,1.812-0.184
		c17.199-0.01,34.398,0.013,51.598-0.045c1.486-0.005,2.338,0.644,3.211,1.652c10.529,12.146,21.078,24.274,31.621,36.407
		c50.408,58.008,100.816,116.016,151.227,174.022c45.217,52.032,90.434,104.063,135.654,156.091c0.494,0.57,1.033,1.102,1.949,2.074
		c0-123.681,0-246.749,0-369.753c1.9-0.557,60.279-0.757,64.613-0.284c0.498,1.676,0.666,473.822,0.145,477.301
		c-0.656,0.041-1.352,0.119-2.049,0.121c-18.158,0.006-36.318-0.018-54.477,0.045c-1.629,0.006-2.627-0.594-3.637-1.758
		c-20.689-23.869-41.406-47.713-62.123-71.557c-32.1-36.945-64.205-73.883-96.303-110.829
		c-33.516-38.575-67.023-77.156-100.535-115.732c-18.986-21.854-37.977-43.702-56.959-65.558c-0.355-0.409-0.633-0.886-0.945-1.332
		C563.119,111.726,562.906,111.846,562.691,111.966z"/>
	<path fill-rule="evenodd" clip-rule="evenodd" d="M126.435,417.349c101.441,0,202.78,0,303.933,0
		c0.244,0.205,0.308,0.248,0.359,0.303c0.054,0.059,0.123,0.123,0.137,0.195c0.06,0.311,0.144,0.625,0.145,0.938
		c0.004,19.439,0.002,38.879-0.007,58.318c0,0.309-0.097,0.617-0.173,1.072c-143.485,0-286.928,0-430.828,0
		C101.939,339.103,203.655,200.336,305.328,61.627c-0.086-0.205-0.107-0.287-0.152-0.351c-0.041-0.057-0.102-0.118-0.165-0.135
		c-0.153-0.041-0.312-0.061-0.47-0.083c-0.079-0.011-0.159-0.01-0.239-0.011c-0.16-0.002-0.32-0.003-0.48-0.003
		c-94.315-0.002-188.631-0.003-282.946-0.006c-0.16,0-0.32-0.006-0.479-0.016c-0.079-0.005-0.158-0.022-0.237-0.036
		s-0.163-0.018-0.234-0.049c-0.07-0.031-0.126-0.091-0.346-0.26c0-19.994,0-40.109,0-60.22c1.745-0.461,406.939-0.653,410.951-0.2
		c0.029,0.075,0.071,0.147,0.082,0.225c0.01,0.071,0.003,0.154-0.026,0.219c-0.064,0.146-0.136,0.291-0.225,0.422
		c-0.178,0.265-0.369,0.522-0.558,0.78c-101.025,138.14-202.051,276.28-303.075,414.422c-0.093,0.127-0.169,0.27-0.235,0.412
		C126.463,416.804,126.476,416.888,126.435,417.349z"/>
</g>
</svg>
