<?xml version="1.0" encoding="utf-8"?>
<!-- Generator: Adobe Illustrator 16.0.4, SVG Export Plug-In . SVG Version: 6.00 Build 0)  -->
<!DOCTYPE svg PUBLIC "-//W3C//DTD SVG 1.1//EN" "http://www.w3.org/Graphics/SVG/1.1/DTD/svg11.dtd">
<svg version="1.1" id="Layer_1" xmlns="http://www.w3.org/2000/svg" xmlns:xlink="http://www.w3.org/1999/xlink" x="0px" y="0px"
	 width="512px" height="512px" viewBox="0 0 512 512" enable-background="new 0 0 512 512" xml:space="preserve">
<g>
	<path fill="#FFFFFF" d="M511.018,410.5c-170,0-340,0-510,0c1.206-1.294,2.289-2.737,3.637-3.86
		c51.808-43.173,103.638-86.317,155.469-129.462c10.724-8.928,21.46-17.84,32.277-26.83c21.356,18.043,42.426,35.844,63.628,53.758
		c21.465-18.148,42.505-35.938,63.536-53.719c1.222,0.958,2.02,1.553,2.783,2.188c57.719,48.043,115.445,96.074,173.132,144.155
		C500.793,401.158,505.845,405.902,511.018,410.5z"/>
	<path fill-rule="evenodd" clip-rule="evenodd" fill="#FFFFFF" d="M512.018,87.5c0,101.667,0,203.334,0,305
		c-0.547-0.371-1.129-0.698-1.635-1.118c-59.021-49.125-118.031-98.261-177.075-147.359c-0.992-0.825-2.371-1.186-3.926-1.935
		C391.243,189.727,451.63,138.613,512.018,87.5z"/>
	<path fill-rule="evenodd" clip-rule="evenodd" fill="#FFFFFF" d="M0.018,392.5c0-101.666,0-203.333,0-305
		c60.456,51.178,120.912,102.356,181.619,153.747c-1.422,1.309-2.344,2.233-3.343,3.065c-29.687,24.736-59.361,49.488-89.079,74.188
		C59.505,343.194,29.752,367.836,0.018,392.5z"/>
	<path fill-rule="evenodd" clip-rule="evenodd" fill="none" d="M0.018,392.5c29.734-24.664,59.488-49.306,89.198-74
		c29.717-24.699,59.392-49.451,89.079-74.188c0.999-0.832,1.92-1.756,3.343-3.065C120.93,189.856,60.474,138.678,0.018,87.5
		c0-6.333,0-12.667,0-19c170.667,0,341.333,0,512,0c0,6.333,0,12.667,0,19c-60.388,51.113-120.774,102.227-182.636,154.588
		c1.555,0.749,2.934,1.11,3.926,1.935c59.044,49.098,118.055,98.234,177.075,147.359c0.506,0.42,1.088,0.747,1.635,1.118
		c0,5.5,0.026,11-0.043,16.499c-0.007,0.505-0.624,1.001-0.957,1.501c-5.173-4.598-10.225-9.342-15.538-13.771
		c-57.687-48.081-115.413-96.112-173.132-144.155c-0.764-0.635-1.562-1.229-2.783-2.188c-21.031,17.782-42.071,35.571-63.536,53.719
		c-21.203-17.914-42.272-35.715-63.628-53.758c-10.817,8.99-21.553,17.902-32.277,26.83
		C108.292,320.322,56.462,363.467,4.654,406.64c-1.348,1.123-2.431,2.566-3.637,3.86c-0.333-2.167-0.866-4.325-0.956-6.502
		C-0.096,400.171,0.018,396.333,0.018,392.5z M0.236,69.688c85.929,71.536,170.855,142.236,255.785,212.941
		c85.287-71.008,170.061-141.588,255.762-212.941C340.815,69.688,171.263,69.688,0.236,69.688z"/>
	<path fill-rule="evenodd" clip-rule="evenodd" fill="#FFFFFF" d="M0.236,69.688c171.027,0,340.579,0,511.547,0
		c-85.701,71.353-170.475,141.934-255.762,212.941C171.091,211.924,86.165,141.223,0.236,69.688z"/>
</g>
</svg>
