<?xml version="1.0" encoding="utf-8"?>
<!-- Generator: Adobe Illustrator 16.0.4, SVG Export Plug-In . SVG Version: 6.00 Build 0)  -->
<!DOCTYPE svg PUBLIC "-//W3C//DTD SVG 1.1//EN" "http://www.w3.org/Graphics/SVG/1.1/DTD/svg11.dtd">
<svg version="1.1" id="Layer_1" xmlns="http://www.w3.org/2000/svg" xmlns:xlink="http://www.w3.org/1999/xlink" x="0px" y="0px"
	 width="448.285px" height="422.966px" viewBox="0 0 448.285 422.966" enable-background="new 0 0 448.285 422.966"
	 xml:space="preserve">
<g>
	<path fill="#FFFFFF" d="M104.178,136.281c0.625,10.643,1.136,21.293,1.912,31.925c0.622,8.521-1.094,10.668-9.878,11.529
		c-8.736,0.856-16.9-1.32-24.653-5.016c-5.631-2.684-10.991-2.178-16.34,0.349c-10.517,4.967-11.804,14.284-2.252,20.896
		c5.916,4.095,12.945,6.619,19.567,9.646c7.08,3.237,14.688,5.539,21.305,9.515c8.577,5.153,11.185,13.479,7.887,23.011
		c-2.107,6.089-4.886,12.052-8.139,17.619c-20.294,34.732-47.506,60.681-88.541,68.829c-5.107,1.015-6.82,5.783-2.869,9.71
		c3.788,3.764,8.473,7.46,13.445,9.032c12.802,4.049,25.915,7.217,39.048,10.066c4.465,0.97,6.848,2.898,7.87,7
		c1.407,5.648,2.651,11.339,4.132,16.968c1.398,5.317,3.587,6.842,9.104,6.126c4.45-0.577,8.836-1.629,13.267-2.368
		c24.589-4.099,47.73-1.729,68.156,14.394c6.774,5.348,14.035,10.215,21.542,14.476c30.462,17.29,61.182,17.328,91.624-0.024
		c8.077-4.604,15.755-10.006,23.2-15.596c14.933-11.211,31.662-16.088,50.114-14.784c9.772,0.691,19.477,2.332,29.221,3.462
		c6.321,0.733,8.101-0.477,9.674-6.527c1.423-5.472,2.665-10.991,4.063-16.47c1.001-3.917,3.323-5.769,7.592-6.647
		c12.195-2.511,24.368-5.326,36.283-8.909c5.255-1.58,10.227-4.842,14.606-8.263c2.053-1.604,3.423-5.511,3.13-8.155
		c-0.175-1.582-4.006-3.424-6.461-3.993c-47.049-10.918-75.458-42.605-94.071-84.83c-4.589-10.41-0.97-19.479,8.989-25.176
		c6.143-3.516,13.139-5.513,19.648-8.423c6.648-2.971,13.685-5.469,19.63-9.524c9.782-6.673,8.454-16.167-2.337-21.179
		c-6.018-2.795-12.035-3.232-18.302-0.358c-7.3,3.347-14.874,5.97-23.13,5.066c-8.197-0.897-9.697-3.063-9.277-11.135
		c0.909-17.465,1.741-34.938,2.23-52.419c1.118-39.946-14.482-72.418-47.82-93.944C253.255-6.31,206.341-6.605,160.102,17.011
		c-27.269,13.927-45.037,37.243-52.869,67.059C102.758,101.102,103.494,118.765,104.178,136.281z"/>
	<path fill-rule="evenodd" clip-rule="evenodd" fill="#FFFFFF" d="M104.178,136.281c-0.684-17.517-1.419-35.179,3.055-52.211
		c7.833-29.816,25.601-53.131,52.869-67.059c46.24-23.616,93.153-23.321,137.244,5.147c33.338,21.525,48.938,53.998,47.82,93.944
		c-0.489,17.48-1.321,34.954-2.23,52.419c-0.42,8.072,1.08,10.238,9.277,11.135c8.256,0.903,15.83-1.719,23.13-5.066
		c6.267-2.874,12.284-2.437,18.302,0.358c10.791,5.012,12.119,14.506,2.337,21.179c-5.945,4.055-12.981,6.553-19.63,9.524
		c-6.51,2.91-13.506,4.907-19.648,8.423c-9.959,5.697-13.578,14.766-8.989,25.176c18.613,42.225,47.022,73.912,94.071,84.83
		c2.455,0.569,6.286,2.411,6.461,3.993c0.293,2.645-1.077,6.551-3.13,8.155c-4.38,3.421-9.352,6.683-14.606,8.263
		c-11.915,3.583-24.088,6.398-36.283,8.909c-4.269,0.879-6.591,2.73-7.592,6.647c-1.398,5.479-2.641,10.998-4.063,16.47
		c-1.573,6.051-3.353,7.261-9.674,6.527c-9.744-1.13-19.448-2.771-29.221-3.462c-18.452-1.304-35.182,3.573-50.114,14.784
		c-7.445,5.59-15.123,10.992-23.2,15.596c-30.441,17.353-61.161,17.314-91.624,0.024c-7.507-4.261-14.768-9.128-21.542-14.476
		c-20.426-16.123-43.567-18.492-68.156-14.394c-4.431,0.739-8.817,1.791-13.267,2.368c-5.516,0.716-7.705-0.809-9.104-6.126
		c-1.48-5.629-2.725-11.319-4.132-16.968c-1.022-4.102-3.404-6.03-7.87-7c-13.133-2.85-26.246-6.018-39.048-10.066
		c-4.972-1.572-9.658-5.269-13.445-9.032c-3.951-3.927-2.238-8.695,2.869-9.71c41.035-8.148,68.247-34.097,88.541-68.829
		c3.252-5.567,6.032-11.53,8.139-17.619c3.298-9.532,0.69-17.857-7.887-23.011c-6.617-3.976-14.225-6.277-21.305-9.515
		c-6.622-3.027-13.652-5.551-19.567-9.646c-9.552-6.612-8.264-15.929,2.252-20.896c5.349-2.526,10.709-3.033,16.34-0.349
		c7.753,3.696,15.917,5.872,24.653,5.016c8.784-0.861,10.5-3.008,9.878-11.529C105.313,157.575,104.803,146.924,104.178,136.281z"/>
</g>
</svg>
