<?xml version="1.0" encoding="utf-8"?>
<!-- Generator: Adobe Illustrator 16.0.4, SVG Export Plug-In . SVG Version: 6.00 Build 0)  -->
<!DOCTYPE svg PUBLIC "-//W3C//DTD SVG 1.1//EN" "http://www.w3.org/Graphics/SVG/1.1/DTD/svg11.dtd">
<svg version="1.1" id="Layer_1" xmlns="http://www.w3.org/2000/svg" xmlns:xlink="http://www.w3.org/1999/xlink" x="0px" y="0px"
	 width="461.04px" height="460.799px" viewBox="0 0 461.04 460.799" enable-background="new 0 0 461.04 460.799"
	 xml:space="preserve">
<g>
	<path fill-rule="evenodd" clip-rule="evenodd" fill="none" stroke="#FFFFFF" d="M231.038,289.195
		c-2.731-2.659-5.135-4.944-7.479-7.288c-28.203-28.191-56.397-56.39-84.596-84.585c-0.537-0.537-1.076-1.074-1.647-1.574
		c-2.819-2.459-6.052-3.883-9.848-3.672c-7.756,0.434-15.795,8.771-9.929,18.812c1.998,3.42,4.851,6.037,7.567,8.783
		c10.86,10.972,21.77,21.895,32.681,32.815c18.826,18.844,37.668,37.672,56.502,56.51c0.367,0.367,0.713,0.756,1.081,1.123
		c2.973,2.961,5.868,6.007,9.47,8.253c3.929,2.449,7.899,2.536,11.704-0.07c2.393-1.64,4.699-3.484,6.75-5.531
		c32.419-32.345,64.791-64.737,97.168-97.123c0.819-0.82,1.617-1.666,2.364-2.551c3.593-4.256,4.128-9.336,1.533-14.291
		c-2.444-4.668-6.99-7.064-12.425-6.617c-3.779,0.312-6.664,2.295-9.229,4.859c-30.201,30.209-60.394,60.423-90.579,90.646
		C231.737,288.084,231.467,288.595,231.038,289.195z"/>
	<path fill-rule="evenodd" clip-rule="evenodd" fill="#FFFFFF" stroke="#FFFFFF" d="M231.038,289.195
		c0.43-0.6,0.699-1.11,1.089-1.501c30.186-30.223,60.378-60.437,90.579-90.646c2.564-2.564,5.449-4.547,9.229-4.859
		c5.435-0.447,9.98,1.949,12.425,6.617c2.595,4.955,2.06,10.035-1.533,14.291c-0.747,0.885-1.545,1.73-2.364,2.551
		c-32.377,32.386-64.749,64.778-97.168,97.123c-2.051,2.047-4.357,3.892-6.75,5.531c-3.805,2.606-7.775,2.52-11.704,0.07
		c-3.602-2.246-6.497-5.292-9.47-8.253c-0.368-0.367-0.714-0.756-1.081-1.123c-18.834-18.838-37.676-37.666-56.502-56.51
		c-10.911-10.921-21.82-21.844-32.681-32.815c-2.717-2.746-5.569-5.363-7.567-8.783c-5.866-10.041,2.173-18.379,9.929-18.812
		c3.796-0.211,7.028,1.213,9.848,3.672c0.571,0.5,1.11,1.037,1.647,1.574c28.198,28.195,56.393,56.394,84.596,84.585
		C225.903,284.25,228.306,286.536,231.038,289.195z"/>
</g>
</svg>
