<?xml version="1.0" encoding="utf-8"?>
<!-- Generator: Adobe Illustrator 16.0.4, SVG Export Plug-In . SVG Version: 6.00 Build 0)  -->
<!DOCTYPE svg PUBLIC "-//W3C//DTD SVG 1.1//EN" "http://www.w3.org/Graphics/SVG/1.1/DTD/svg11.dtd">
<svg version="1.1" id="Layer_1" xmlns="http://www.w3.org/2000/svg" xmlns:xlink="http://www.w3.org/1999/xlink" x="0px" y="0px"
	 width="623.31px" height="508.321px" viewBox="0 0 623.31 508.321" enable-background="new 0 0 623.31 508.321"
	 xml:space="preserve">
<g>
	<path fill="#FFFFFF" d="M0.583,451.189c-0.194,0.446-0.389,0.894-0.583,1.34c11.229,6.027,22.395,12.177,33.7,18.059
		c27.359,14.235,56.446,23.733,86.479,30.182c29.772,6.392,60.007,8.328,90.436,7.285c43.34-1.486,85.244-9.915,125.478-26.176
		c42.668-17.243,80.345-42.157,113.027-74.546c24.134-23.917,44.432-50.744,61.267-80.305
		c15.583-27.361,27.663-56.167,36.142-86.383c9.909-35.316,14.734-71.412,13.243-108.178c-0.175-4.319,1.148-7.082,4.53-9.684
		c6.711-5.163,13.287-10.541,19.547-16.238c14.69-13.371,27.601-28.317,39.46-46.14c-23.263,9.56-45.883,16.691-69.99,18.568
		c24.832-17.183,42.897-39.254,52.859-69.164c-3.41,1.648-5.688,2.6-7.822,3.804c-21.485,12.129-44.464,20.212-68.446,25.753
		c-3.816,0.882-6.166,0.084-8.768-2.556c-17.697-17.958-39.16-29.545-63.733-34.149c-42.547-7.972-80.872,1.805-112.95,31.46
		c-29.177,26.974-42.833,60.792-40.954,100.615c0.349,7.396,1.433,14.757,2.258,22.933C198.531,150.3,110.935,105.271,40.815,22.956
		c-30.598,67.64-18.262,124.237,38.021,171.72c-9.491-1.195-19.08-2.319-28.274-4.868c-9.146-2.536-17.895-6.503-26.858-9.858
		c-1.839,16.989,4.46,42.611,15.772,62.728c18.695,33.244,47.117,53.791,83.956,63.945c-8.972,1.845-17.887,3.264-26.853,3.763
		c-9.131,0.509-18.313,0.112-27.7,0.112c8.528,24.688,23.322,45.485,44.702,61.483c21.478,16.071,45.813,24.396,72.707,26.232
		C131.362,440.5,69.325,457.506,0.583,451.189z"/>
	<path fill-rule="evenodd" clip-rule="evenodd" fill="#FFFFFF" d="M0.583,451.189c68.742,6.317,130.779-10.689,185.707-52.976
		c-26.894-1.836-51.229-10.161-72.707-26.232c-21.38-15.998-36.174-36.796-44.702-61.483c9.386,0,18.568,0.396,27.7-0.112
		c8.966-0.499,17.881-1.918,26.853-3.763c-36.839-10.154-65.261-30.701-83.956-63.945c-11.312-20.116-17.612-45.738-15.772-62.728
		c8.963,3.355,17.712,7.322,26.858,9.858c9.194,2.549,18.784,3.673,28.274,4.868c-56.284-47.482-68.619-104.08-38.021-171.72
		c70.12,82.316,157.716,127.344,264.947,134.714c-0.825-8.176-1.909-15.538-2.258-22.933
		c-1.879-39.823,11.777-73.641,40.954-100.615c32.078-29.655,70.403-39.432,112.95-31.46c24.573,4.604,46.036,16.191,63.733,34.149
		c2.602,2.64,4.951,3.438,8.768,2.556c23.982-5.541,46.961-13.624,68.446-25.753c2.135-1.205,4.412-2.156,7.822-3.804
		c-9.962,29.91-28.027,51.98-52.859,69.164c24.107-1.877,46.728-9.008,69.99-18.568c-11.859,17.823-24.77,32.77-39.46,46.14
		c-6.26,5.698-12.836,11.076-19.547,16.238c-3.382,2.602-4.705,5.364-4.53,9.684c1.491,36.766-3.334,72.862-13.243,108.178
		c-8.479,30.216-20.559,59.021-36.142,86.383c-16.835,29.561-37.133,56.388-61.267,80.305
		c-32.683,32.389-70.359,57.303-113.027,74.546c-40.234,16.261-82.138,24.689-125.478,26.176
		c-30.429,1.043-60.664-0.894-90.436-7.285c-30.034-6.448-59.121-15.946-86.479-30.182c-11.305-5.882-22.471-12.031-33.7-18.059
		C0.194,452.083,0.389,451.635,0.583,451.189z"/>
</g>
</svg>
