<?xml version="1.0" encoding="utf-8"?>
<!-- Generator: Adobe Illustrator 16.0.4, SVG Export Plug-In . SVG Version: 6.00 Build 0)  -->
<!DOCTYPE svg PUBLIC "-//W3C//DTD SVG 1.1//EN" "http://www.w3.org/Graphics/SVG/1.1/DTD/svg11.dtd">
<svg version="1.1" id="Layer_1" xmlns="http://www.w3.org/2000/svg" xmlns:xlink="http://www.w3.org/1999/xlink" x="0px" y="0px"
	 width="1022.246px" height="718.399px" viewBox="0 0 1022.246 718.399" enable-background="new 0 0 1022.246 718.399"
	 xml:space="preserve">
<g>
	<path fill="none" d="M511.162,0.738c0-0.225,0-0.449,0.001-0.673c-20.992,0-41.985-0.172-62.975,0.044
		c-24.477,0.252-48.957,0.628-73.425,1.333C321.844,2.968,268.91,4.253,216.024,6.596c-30.238,1.339-60.591,3.142-90.534,7.307
		c-35.335,4.915-64.054,22.939-84.634,52.383c-12.443,17.801-18.688,38.476-24.346,59.267c-7.754,28.49-9.122,57.829-11.681,86.986
		c-6.347,72.316-5.022,144.825-3.851,217.26c0.589,36.406,4.258,72.771,6.838,109.133c1.93,27.191,7.787,53.563,16.652,79.395
		c14.498,42.245,43.044,69.826,86.101,80.519c22.645,5.624,46.176,8.885,69.489,10.365c48.334,3.07,96.775,4.832,145.199,6.042
		c63.927,1.598,127.877,2.288,191.821,3.075c21.479,0.264,42.973-0.256,64.456-0.612c39.796-0.66,79.601-1.115,119.382-2.304
		c41.936-1.253,83.873-2.81,125.761-5.117c24.731-1.362,49.707-2.631,73.972-7.158c39.329-7.337,69.841-28.701,88.459-65.015
		c9.467-18.466,16.25-38.146,19.27-58.564c4.306-29.111,7.512-58.434,9.896-87.771c5.501-67.672,4.021-135.528,2.947-203.297
		c-0.578-36.411-4.265-72.779-6.817-109.148c-1.849-26.351-7.308-51.973-15.714-77.064c-16.269-48.554-49.562-78.136-99.411-87.974
		c-19.982-3.943-40.639-5.225-61.057-6.061c-70.69-2.894-141.4-5.5-212.126-7.326C587.809-0.074,549.475,0.738,511.162,0.738z"/>
	<path fill-rule="evenodd" clip-rule="evenodd" fill="#FFFFFF" d="M511.162,0.738c38.313,0,76.647-0.812,114.935,0.176
		c70.726,1.827,141.436,4.432,212.126,7.326c20.418,0.836,41.074,2.118,61.057,6.061c49.85,9.837,83.143,39.419,99.411,87.974
		c8.406,25.092,13.865,50.714,15.714,77.064c2.553,36.369,6.239,72.737,6.817,109.148c1.074,67.769,2.554,135.625-2.947,203.297
		c-2.385,29.338-5.591,58.66-9.896,87.771c-3.02,20.419-9.803,40.099-19.27,58.564c-18.618,36.313-49.13,57.678-88.459,65.015
		c-24.265,4.527-49.24,5.796-73.972,7.158c-41.888,2.308-83.825,3.864-125.761,5.117c-39.781,1.188-79.586,1.644-119.382,2.304
		c-21.483,0.356-42.977,0.876-64.456,0.612c-63.944-0.787-127.895-1.478-191.821-3.075c-48.424-1.21-96.865-2.972-145.199-6.042
		c-23.312-1.48-46.844-4.741-69.489-10.365c-43.057-10.692-71.603-38.273-86.101-80.519c-8.865-25.831-14.722-52.203-16.652-79.395
		c-2.58-36.362-6.249-72.727-6.838-109.133c-1.171-72.435-2.496-144.943,3.851-217.26c2.559-29.157,3.927-58.496,11.681-86.986
		c5.658-20.791,11.903-41.465,24.346-59.267c20.58-29.444,49.299-47.468,84.634-52.383c29.943-4.165,60.296-5.968,90.534-7.307
		c52.885-2.343,105.82-3.628,158.739-5.154c24.468-0.705,48.948-1.081,73.425-1.333c20.989-0.216,41.982-0.044,62.975-0.044
		C511.162,0.289,511.162,0.514,511.162,0.738z M405.86,491.259c92.038-47.694,183.285-94.979,275.365-142.694
		c-92.258-48.13-183.521-95.74-275.365-143.654C405.86,300.747,405.86,395.361,405.86,491.259z"/>
	<path fill-rule="evenodd" clip-rule="evenodd" fill="none" d="M405.86,491.259c0-95.898,0-190.513,0-286.349
		c91.844,47.914,183.107,95.524,275.365,143.654C589.145,396.281,497.898,443.565,405.86,491.259z"/>
</g>
</svg>
